<svg id="Layer_2" data-name="Layer 2" xmlns="http://www.w3.org/2000/svg" viewBox="0 0 10.76 15.06"><defs><style>.cls-1{fill:#923a7f;}</style></defs><title>TotalBenefits_Login_userIcon</title><path class="cls-1" d="M3403.57,476.88a4.3,4.3,0,1,1,4.3-4.3A4.3,4.3,0,0,1,3403.57,476.88Z" transform="translate(-3398.19 -468.28)"/><path class="cls-1" d="M3408.88,480.23a3.6,3.6,0,0,0-1.26-2.44c-.33-.28-.67-.53-1-.78a5.3,5.3,0,0,1-3,.95h0a5.32,5.32,0,0,1-3-.95l-.76.58a3.62,3.62,0,0,0-1.3,1.71,7.1,7.1,0,0,0-.28,2,1.09,1.09,0,0,0,.46.94,3.42,3.42,0,0,0,1,.53,13.25,13.25,0,0,0,3.9.57c.47,0,.93,0,1.4-.07a10.84,10.84,0,0,0,2.52-.51,3.46,3.46,0,0,0,1-.52,1.08,1.08,0,0,0,.45-.94C3408.94,480.94,3408.92,480.58,3408.88,480.23Z" transform="translate(-3398.19 -468.28)"/></svg>