<svg id="Layer_2" data-name="Layer 2" xmlns="http://www.w3.org/2000/svg" viewBox="0 0 10.87 14.13"><defs><style>.cls-1{fill:#923a7f;}</style></defs><title>TotalBenefits_Login_lockIcon</title><path class="cls-1" d="M3404,537.19c.3.06.61.09.9.17a3.27,3.27,0,0,1,2,1.51,5,5,0,0,1,.67,2.65v.55h-1.63v-.18a5,5,0,0,0-.14-1.5,1.89,1.89,0,0,0-1.22-1.43,2.07,2.07,0,0,0-2.91,1.71,8.26,8.26,0,0,0-.09,1c0,.13,0,.26,0,.4H3400v-.49a5.18,5.18,0,0,1,.47-2.33,3.4,3.4,0,0,1,2.69-2l.39-.06Z" transform="translate(-3398.33 -537.19)"/><path class="cls-1" d="M3403.76,542.63h3.8a1.62,1.62,0,0,1,1.59,1.27,2,2,0,0,1,0,.41v5.33a1.63,1.63,0,0,1-1.69,1.68H3400a1.63,1.63,0,0,1-1.69-1.69v-5.31a1.63,1.63,0,0,1,1.69-1.69Zm-.55,5.39v.55a.56.56,0,0,0,.34.54.54.54,0,0,0,.76-.51q0-.54,0-1.08a.27.27,0,0,1,.11-.23,1,1,0,0,0,.41-1.07,1.09,1.09,0,0,0-.87-.86,1.1,1.1,0,0,0-1.17.59,1,1,0,0,0,.19,1.22.66.66,0,0,1,.23.63Z" transform="translate(-3398.33 -537.19)"/></svg>